<?xml version="1.0" standalone="no"?>
<!DOCTYPE svg PUBLIC "-//W3C//DTD SVG 20010904//EN"
 "http://www.w3.org/TR/2001/REC-SVG-20010904/DTD/svg10.dtd">
<svg version="1.0" xmlns="http://www.w3.org/2000/svg"
 width="96.000000pt" height="96.000000pt" viewBox="0 0 96.000000 96.000000"
 preserveAspectRatio="xMidYMid meet">
<metadata>
Created by potrace 1.14, written by Peter Selinger 2001-2017
</metadata>
<g transform="translate(0.000000,96.000000) scale(0.100000,-0.100000)"
fill="#000000" stroke="none">
<path d="M309 872 c-5 -62 -1 -82 16 -82 18 0 22 16 21 75 -1 37 -6 51 -18 53
-13 2 -17 -7 -19 -46z"/>
<path d="M90 817 c0 -16 71 -87 87 -87 28 0 21 22 -18 60 -42 40 -69 51 -69
27z"/>
<path d="M497 792 c-39 -40 -47 -62 -22 -62 18 0 85 68 85 87 0 24 -25 14 -63
-25z"/>
<path d="M282 743 c-33 -6 -98 -74 -105 -110 -10 -52 4 -102 38 -139 l33 -34
41 27 c26 17 41 34 41 47 1 36 36 100 73 133 33 29 34 32 19 46 -35 32 -80 41
-140 30z"/>
<path d="M484 676 c-69 -30 -113 -92 -116 -162 -1 -26 -7 -34 -39 -48 -99 -44
-105 -181 -9 -235 39 -22 47 -22 284 -19 l244 3 38 30 c56 46 76 89 70 153 -8
93 -75 155 -169 156 -36 0 -48 5 -53 18 -10 31 -55 78 -95 98 -44 23 -110 25
-155 6z"/>
<path d="M18 612 c-29 -6 -21 -32 10 -33 82 -4 95 -3 99 9 3 7 3 16 -1 19 -7
8 -81 11 -108 5z"/>
<path d="M136 430 c-45 -42 -59 -70 -33 -70 28 1 99 80 88 99 -7 10 -19 4 -55
-29z"/>
<path d="M386 143 c-25 -27 -26 -43 -2 -43 15 0 56 42 56 58 0 21 -28 13 -54
-15z"/>
<path d="M753 146 c-27 -28 -29 -46 -7 -46 21 0 66 48 59 61 -10 15 -29 10
-52 -15z"/>
<path d="M567 75 c-28 -25 -36 -55 -14 -55 16 0 57 42 57 58 0 21 -15 20 -43
-3z"/>
</g>
</svg>
