<svg width="109" height="45" viewBox="0 0 109 45" fill="none" xmlns="http://www.w3.org/2000/svg">
<rect x="2" y="2" width="105" height="41" stroke="#FFF" stroke-width="4"/>
<path d="M12.4922 8.5625H16.1445L25.4609 31.7461L34.7578 8.5625H38.4297L26.8672 37H24.0156L12.4922 8.5625ZM11.3008 8.5625H14.5234L15.0508 25.9062V37H11.3008V8.5625ZM36.3789 8.5625H39.6016V37H35.8516V25.9062L36.3789 8.5625ZM49.9922 8.5625V37H46.2227V8.5625H49.9922ZM67.1602 8.5625L55.3438 21.8242L48.7031 28.7188L48.0781 24.6953L53.0781 19.1875L62.6289 8.5625H67.1602ZM63.5273 37L53 23.1328L55.2461 20.1445L68.0195 37H63.5273Z" fill="#FFF"/>
<rect x="70" y="33" width="27" height="4" fill="#FFF"/>
</svg>
